<?xml version="1.0" encoding="UTF-8" standalone="no"?>
<!DOCTYPE svg PUBLIC "-//W3C//DTD SVG 1.0//EN" "http://www.w3.org/TR/2001/PR-SVG-20010719/DTD/svg10.dtd">
<svg width="19cm" height="10cm" viewBox="258 218 374 183" xmlns="http://www.w3.org/2000/svg" xmlns:xlink="http://www.w3.org/1999/xlink">
  <g>
    <path style="fill: none; fill-opacity:0; stroke-width: 2; stroke-dasharray: 12; stroke: #000000" d="M 321.667 220 L 630,220 C 583.75,256 568.333,274 568.333,310 C 568.333,346 583.75,364 630,400 L 321.667,400 C 275.417,364 260,346 260,310 C 260,274 275.417,256 321.667,220"/>
    <text style="fill: #000000;text-anchor:middle;font-size:12.8;font-family:sanserif;font-style:normal;font-weight:normal" x="445" y="314">
      <tspan x="445" y="314"></tspan>
    </text>
  </g>
  <g>
    <rect style="fill: none; fill-opacity:0; stroke-width: 2; stroke: #000000" x="320" y="261" width="160" height="38"/>
    <text style="fill: #000000;text-anchor:middle;font-size:12.8;font-family:sanserif;font-style:normal;font-weight:normal" x="400" y="283.9">
      <tspan x="400" y="283.9">Sample</tspan>
    </text>
  </g>
  <g>
    <line style="fill: none; fill-opacity:0; stroke-width: 1; stroke: #000000" x1="360" y1="360" x2="360" y2="307.618"/>
    <polygon style="fill: #000000" points="360,300.118 365,310.118 360,307.618 355,310.118 "/>
    <polygon style="fill: none; fill-opacity:0; stroke-width: 1; stroke: #000000" points="360,300.118 365,310.118 360,307.618 355,310.118 "/>
  </g>
  <g>
    <line style="fill: none; fill-opacity:0; stroke-width: 1; stroke: #000000" x1="440" y1="360" x2="440" y2="307.618"/>
    <polygon style="fill: #000000" points="440,300.118 445,310.118 440,307.618 435,310.118 "/>
    <polygon style="fill: none; fill-opacity:0; stroke-width: 1; stroke: #000000" points="440,300.118 445,310.118 440,307.618 435,310.118 "/>
  </g>
  <g>
    <line style="fill: none; fill-opacity:0; stroke-width: 1; stroke: #000000" x1="320" y1="360" x2="320" y2="307.618"/>
    <polygon style="fill: #000000" points="320,300.118 325,310.118 320,307.618 315,310.118 "/>
    <polygon style="fill: none; fill-opacity:0; stroke-width: 1; stroke: #000000" points="320,300.118 325,310.118 320,307.618 315,310.118 "/>
  </g>
  <g>
    <line style="fill: none; fill-opacity:0; stroke-width: 1; stroke: #000000" x1="480" y1="360" x2="480" y2="307.618"/>
    <polygon style="fill: #000000" points="480,300.118 485,310.118 480,307.618 475,310.118 "/>
    <polygon style="fill: none; fill-opacity:0; stroke-width: 1; stroke: #000000" points="480,300.118 485,310.118 480,307.618 475,310.118 "/>
  </g>
  <text style="fill: #000000;text-anchor:start;font-size:12.8;font-family:serif;font-style:normal;font-weight:normal" x="480" y="380">
    <tspan x="480" y="380">1</tspan>
  </text>
  <text style="fill: #000000;text-anchor:start;font-size:12.8;font-family:serif;font-style:normal;font-weight:normal" x="320" y="380">
    <tspan x="320" y="380">2</tspan>
  </text>
  <text style="fill: #000000;text-anchor:start;font-size:12.8;font-family:serif;font-style:normal;font-weight:normal" x="360" y="380">
    <tspan x="360" y="380">3</tspan>
  </text>
  <text style="fill: #000000;text-anchor:start;font-size:12.8;font-family:serif;font-style:normal;font-weight:normal" x="440" y="380">
    <tspan x="440" y="380">4</tspan>
  </text>
  <text style="fill: #000000;text-anchor:start;font-size:12.8;font-family:sanserif;font-style:normal;font-weight:normal" x="450" y="250">
    <tspan x="450" y="250">hot</tspan>
  </text>
  <text style="fill: #000000;text-anchor:start;font-size:12.8;font-family:sanserif;font-style:normal;font-weight:normal" x="320" y="250">
    <tspan x="320" y="250">cold</tspan>
  </text>
  <g>
    <rect style="fill: none; fill-opacity:0; stroke-width: 2; stroke: #000000" x="480" y="260" width="40" height="40"/>
    <text style="fill: #000000;text-anchor:middle;font-size:12.8;font-family:sanserif;font-style:normal;font-weight:normal" x="500" y="283.9">
      <tspan x="500" y="283.9"></tspan>
    </text>
  </g>
  <polyline style="fill: none; fill-opacity:0; stroke-width: 2; stroke: #000000" points="540,270 500,270 516,280 500,290 540,290 "/>
  <g>
    <line style="fill: none; fill-opacity:0; stroke-width: 1; stroke: #000000" x1="328.618" y1="340" x2="351.382" y2="340"/>
    <polygon style="fill: #000000" points="321.118,340 331.118,335 328.618,340 331.118,345 "/>
    <polygon style="fill: none; fill-opacity:0; stroke-width: 1; stroke: #000000" points="321.118,340 331.118,335 328.618,340 331.118,345 "/>
    <polygon style="fill: #000000" points="358.882,340 348.882,345 351.382,340 348.882,335 "/>
    <polygon style="fill: none; fill-opacity:0; stroke-width: 1; stroke: #000000" points="358.882,340 348.882,345 351.382,340 348.882,335 "/>
  </g>
  <text style="fill: #000000;text-anchor:start;font-size:12.8;font-family:serif;font-style:normal;font-weight:normal" x="333.875" y="330">
    <tspan x="333.875" y="330">l3</tspan>
  </text>
  <g>
    <line style="fill: none; fill-opacity:0; stroke-width: 1; stroke: #000000" x1="368.618" y1="340" x2="431.382" y2="340"/>
    <polygon style="fill: #000000" points="361.118,340 371.118,335 368.618,340 371.118,345 "/>
    <polygon style="fill: none; fill-opacity:0; stroke-width: 1; stroke: #000000" points="361.118,340 371.118,335 368.618,340 371.118,345 "/>
    <polygon style="fill: #000000" points="438.882,340 428.882,345 431.382,340 428.882,335 "/>
    <polygon style="fill: none; fill-opacity:0; stroke-width: 1; stroke: #000000" points="438.882,340 428.882,345 431.382,340 428.882,335 "/>
  </g>
  <text style="fill: #000000;text-anchor:start;font-size:12.8;font-family:serif;font-style:normal;font-weight:normal" x="393.875" y="329.764">
    <tspan x="393.875" y="329.764">l2</tspan>
  </text>
  <g>
    <line style="fill: none; fill-opacity:0; stroke-width: 1; stroke: #000000" x1="448.618" y1="340" x2="471.382" y2="340"/>
    <polygon style="fill: #000000" points="441.118,340 451.118,335 448.618,340 451.118,345 "/>
    <polygon style="fill: none; fill-opacity:0; stroke-width: 1; stroke: #000000" points="441.118,340 451.118,335 448.618,340 451.118,345 "/>
    <polygon style="fill: #000000" points="478.882,340 468.882,345 471.382,340 468.882,335 "/>
    <polygon style="fill: none; fill-opacity:0; stroke-width: 1; stroke: #000000" points="478.882,340 468.882,345 471.382,340 468.882,335 "/>
  </g>
  <text style="fill: #000000;text-anchor:start;font-size:12.8;font-family:serif;font-style:normal;font-weight:normal" x="453.875" y="329.764">
    <tspan x="453.875" y="329.764">l1</tspan>
  </text>
  <text style="fill: #000000;text-anchor:start;font-size:12.7998;font-family:sanserif;font-style:normal;font-weight:normal" x="510" y="250">
    <tspan x="510" y="250">I heat</tspan>
  </text>
</svg>
