<?xml version="1.0" encoding="UTF-8" standalone="no"?>
<!DOCTYPE svg PUBLIC "-//W3C//DTD SVG 1.0//EN" "http://www.w3.org/TR/2001/PR-SVG-20010719/DTD/svg10.dtd">
<svg width="16cm" height="7cm" viewBox="20 18 320 135" xmlns="http://www.w3.org/2000/svg" xmlns:xlink="http://www.w3.org/1999/xlink">
  <g>
    <rect style="fill: none; fill-opacity:0; stroke-width: 2; stroke: #000000" x="120" y="40" width="160" height="40"/>
    <text style="fill: #000000;text-anchor:middle;font-size:12.8;font-family:sanserif;font-style:normal;font-weight:normal" x="200" y="63.9">
      <tspan x="200" y="63.9">Sample</tspan>
    </text>
  </g>
  <g>
    <line style="fill: none; fill-opacity:0; stroke-width: 1; stroke: #000000" x1="160" y1="130" x2="160" y2="88.618"/>
    <polygon style="fill: #000000" points="160,81.118 165,91.118 160,88.618 155,91.118 "/>
    <polygon style="fill: none; fill-opacity:0; stroke-width: 1; stroke: #000000" points="160,81.118 165,91.118 160,88.618 155,91.118 "/>
  </g>
  <g>
    <line style="fill: none; fill-opacity:0; stroke-width: 1; stroke: #000000" x1="240" y1="130" x2="240" y2="88.618"/>
    <polygon style="fill: #000000" points="240,81.118 245,91.118 240,88.618 235,91.118 "/>
    <polygon style="fill: none; fill-opacity:0; stroke-width: 1; stroke: #000000" points="240,81.118 245,91.118 240,88.618 235,91.118 "/>
  </g>
  <g>
    <line style="fill: none; fill-opacity:0; stroke-width: 1; stroke: #000000" x1="120" y1="130" x2="120" y2="88.618"/>
    <polygon style="fill: #000000" points="120,81.118 125,91.118 120,88.618 115,91.118 "/>
    <polygon style="fill: none; fill-opacity:0; stroke-width: 1; stroke: #000000" points="120,81.118 125,91.118 120,88.618 115,91.118 "/>
  </g>
  <g>
    <line style="fill: none; fill-opacity:0; stroke-width: 1; stroke: #000000" x1="280" y1="130" x2="280" y2="88.618"/>
    <polygon style="fill: #000000" points="280,81.118 285,91.118 280,88.618 275,91.118 "/>
    <polygon style="fill: none; fill-opacity:0; stroke-width: 1; stroke: #000000" points="280,81.118 285,91.118 280,88.618 275,91.118 "/>
  </g>
  <text style="fill: #000000;text-anchor:start;font-size:12.8;font-family:serif;font-style:normal;font-weight:normal" x="280" y="150">
    <tspan x="280" y="150">1</tspan>
  </text>
  <text style="fill: #000000;text-anchor:start;font-size:12.8;font-family:serif;font-style:normal;font-weight:normal" x="120" y="150">
    <tspan x="120" y="150">2</tspan>
  </text>
  <text style="fill: #000000;text-anchor:start;font-size:12.8;font-family:serif;font-style:normal;font-weight:normal" x="160" y="150">
    <tspan x="160" y="150">3</tspan>
  </text>
  <text style="fill: #000000;text-anchor:start;font-size:12.8;font-family:serif;font-style:normal;font-weight:normal" x="240" y="150">
    <tspan x="240" y="150">4</tspan>
  </text>
  <text style="fill: #000000;text-anchor:start;font-size:12.8;font-family:sanserif;font-style:normal;font-weight:normal" x="250" y="30">
    <tspan x="250" y="30">hot</tspan>
  </text>
  <text style="fill: #000000;text-anchor:start;font-size:12.8;font-family:sanserif;font-style:normal;font-weight:normal" x="120" y="30">
    <tspan x="120" y="30">cold</tspan>
  </text>
  <g>
    <rect style="fill: none; fill-opacity:0; stroke-width: 2; stroke: #000000" x="280" y="40" width="40" height="40"/>
    <text style="fill: #000000;text-anchor:middle;font-size:12.8;font-family:sanserif;font-style:normal;font-weight:normal" x="300" y="63.9">
      <tspan x="300" y="63.9"></tspan>
    </text>
  </g>
  <polyline style="fill: none; fill-opacity:0; stroke-width: 2; stroke: #000000" points="340,50 300,50 316,60 300,70 340,70 "/>
  <g>
    <line style="fill: none; fill-opacity:0; stroke-width: 1; stroke: #000000" x1="122.236" y1="120" x2="157.764" y2="120"/>
    <polyline style="fill: none; fill-opacity:0; stroke-width: 1; stroke: #000000" points="131.118,115 121.118,120 131.118,125 "/>
    <polyline style="fill: none; fill-opacity:0; stroke-width: 1; stroke: #000000" points="148.882,125 158.882,120 148.882,115 "/>
  </g>
  <text style="fill: #000000;text-anchor:start;font-size:12.8;font-family:serif;font-style:normal;font-weight:normal" x="133.876" y="110">
    <tspan x="133.876" y="110">l3</tspan>
  </text>
  <g>
    <line style="fill: none; fill-opacity:0; stroke-width: 1; stroke: #000000" x1="162.236" y1="120" x2="237.764" y2="120"/>
    <polyline style="fill: none; fill-opacity:0; stroke-width: 1; stroke: #000000" points="171.118,115 161.118,120 171.118,125 "/>
    <polyline style="fill: none; fill-opacity:0; stroke-width: 1; stroke: #000000" points="228.882,125 238.882,120 228.882,115 "/>
  </g>
  <text style="fill: #000000;text-anchor:start;font-size:12.8;font-family:serif;font-style:normal;font-weight:normal" x="193.876" y="109.764">
    <tspan x="193.876" y="109.764">l2</tspan>
  </text>
  <g>
    <line style="fill: none; fill-opacity:0; stroke-width: 1; stroke: #000000" x1="242.236" y1="120" x2="277.764" y2="120"/>
    <polyline style="fill: none; fill-opacity:0; stroke-width: 1; stroke: #000000" points="251.118,115 241.118,120 251.118,125 "/>
    <polyline style="fill: none; fill-opacity:0; stroke-width: 1; stroke: #000000" points="268.882,125 278.882,120 268.882,115 "/>
  </g>
  <text style="fill: #000000;text-anchor:start;font-size:12.8;font-family:serif;font-style:normal;font-weight:normal" x="253.876" y="109.764">
    <tspan x="253.876" y="109.764">l1</tspan>
  </text>
  <text style="fill: #000000;text-anchor:start;font-size:12.8;font-family:serif;font-style:normal;font-weight:normal" x="290" y="30">
    <tspan x="290" y="30">I heat</tspan>
  </text>
  <g>
    <rect style="fill: none; fill-opacity:0; stroke-width: 2; stroke: #000000" x="60" y="40" width="40" height="40"/>
    <text style="fill: #000000;text-anchor:middle;font-size:12.7998;font-family:sanserif;font-style:normal;font-weight:normal" x="80" y="63.9">
      <tspan x="80" y="63.9"></tspan>
    </text>
  </g>
  <text style="fill: #000000;text-anchor:start;font-size:12.8;font-family:serif;font-style:normal;font-weight:normal" x="75.625" y="64.45">
    <tspan x="75.625" y="64.45">S</tspan>
  </text>
  <line style="fill: none; fill-opacity:0; stroke-width: 1; stroke: #000000" x1="100" y1="130" x2="100" y2="80"/>
  <line style="fill: none; fill-opacity:0; stroke-width: 1; stroke: #000000" x1="60" y1="130" x2="60" y2="80"/>
  <g>
    <line style="fill: none; fill-opacity:0; stroke-width: 1; stroke: #000000" x1="62.2361" y1="120" x2="97.7639" y2="120"/>
    <polyline style="fill: none; fill-opacity:0; stroke-width: 1; stroke: #000000" points="71.118,115 61.118,120 71.118,125 "/>
    <polyline style="fill: none; fill-opacity:0; stroke-width: 1; stroke: #000000" points="88.882,125 98.882,120 88.882,115 "/>
  </g>
  <text style="fill: #000000;text-anchor:start;font-size:12.8;font-family:serif;font-style:normal;font-weight:normal" x="74.525" y="110">
    <tspan x="74.525" y="110">w</tspan>
  </text>
  <line style="fill: none; fill-opacity:0; stroke-width: 1; stroke: #000000" x1="30" y1="40" x2="60" y2="40"/>
  <line style="fill: none; fill-opacity:0; stroke-width: 1; stroke: #000000" x1="30" y1="80" x2="60" y2="80"/>
  <text style="fill: #000000;text-anchor:start;font-size:12.8;font-family:serif;font-style:normal;font-weight:normal" x="20" y="60">
    <tspan x="20" y="60">h</tspan>
  </text>
  <g>
    <line style="fill: none; fill-opacity:0; stroke-width: 1; stroke: #000000" x1="40" y1="77.7639" x2="40" y2="42.2361"/>
    <polyline style="fill: none; fill-opacity:0; stroke-width: 1; stroke: #000000" points="35,68.882 40,78.882 45,68.882 "/>
    <polyline style="fill: none; fill-opacity:0; stroke-width: 1; stroke: #000000" points="45,51.118 40,41.118 35,51.118 "/>
  </g>
</svg>
